<svg xmlns="http://www.w3.org/2000/svg" width="42" height="40" viewBox="0 0 42 40">
  <metadata><?xpacket begin="﻿" id="W5M0MpCehiHzreSzNTczkc9d"?>
<x:xmpmeta xmlns:x="adobe:ns:meta/" x:xmptk="Adobe XMP Core 5.6-c138 79.159824, 2016/09/14-01:09:01        ">
   <rdf:RDF xmlns:rdf="http://www.w3.org/1999/02/22-rdf-syntax-ns#">
      <rdf:Description rdf:about=""/>
   </rdf:RDF>
</x:xmpmeta>
                                                                                                    
                                                                                                    
                                                                                                    
                                                                                                    
                                                                                                    
                                                                                                    
                                                                                                    
                                                                                                    
                                                                                                    
                                                                                                    
                                                                                                    
                                                                                                    
                                                                                                    
                                                                                                    
                                                                                                    
                                                                                                    
                                                                                                    
                                                                                                    
                                                                                                    
                                                                                                    
                           
<?xpacket end="w"?></metadata>
<defs>
    <style>
      .cls-1 {
        fill-rule: evenodd;
      }
    </style>
  </defs>
  <path id="Rounded_Rectangle_1_copy" data-name="Rounded Rectangle 1 copy" class="cls-1" d="M664,1985.74v-11.87h42v11.87H664Zm8.375-10.35-5.32,8.83h4.661l5.32-8.83h-4.661Zm12.58,0-5.32,8.83H684.7l5.32-8.83h-5.062Zm12.981,0-5.321,8.83h4.862l5.321-8.83h-4.862Zm3.553-4.21h-1.854v1.85h-3.609v-1.85h-1.754a2.751,2.751,0,0,1-2.757-2.74v-2.7a2.751,2.751,0,0,1,2.757-2.74h7.217a2.75,2.75,0,0,1,2.757,2.74v2.7A2.75,2.75,0,0,1,701.489,1971.18Zm1-5.34a0.994,0.994,0,0,0-1-.99h-7.217a0.994,0.994,0,0,0-1,.99v2.6a0.994,0.994,0,0,0,1,.99h7.217a0.994,0.994,0,0,0,1-.99v-2.6Zm-26.513,5.34h-1.855v1.85h-3.609v-1.85h-1.754a2.75,2.75,0,0,1-2.756-2.74v-2.7a2.75,2.75,0,0,1,2.756-2.74h7.218a2.75,2.75,0,0,1,2.756,2.74v2.7A2.75,2.75,0,0,1,675.979,1971.18Zm1-5.34a0.994,0.994,0,0,0-1-.99h-7.218a0.994,0.994,0,0,0-1,.99v2.6a0.994,0.994,0,0,0,1,.99h7.218a0.994,0.994,0,0,0,1-.99v-2.6Zm-2.055,28.08h20.3v-7.38h5.313V2003h-5.313v-3.69h-20.3V2003h-5.313v-16.46h5.313v7.38Z" transform="translate(-664 -1963)"/>
</svg>
