<svg xmlns="http://www.w3.org/2000/svg" width="42" height="40" viewBox="0 0 42 40">
  <metadata><?xpacket begin="﻿" id="W5M0MpCehiHzreSzNTczkc9d"?>
<x:xmpmeta xmlns:x="adobe:ns:meta/" x:xmptk="Adobe XMP Core 5.6-c138 79.159824, 2016/09/14-01:09:01        ">
   <rdf:RDF xmlns:rdf="http://www.w3.org/1999/02/22-rdf-syntax-ns#">
      <rdf:Description rdf:about=""/>
   </rdf:RDF>
</x:xmpmeta>
                                                                                                    
                                                                                                    
                                                                                                    
                                                                                                    
                                                                                                    
                                                                                                    
                                                                                                    
                                                                                                    
                                                                                                    
                                                                                                    
                                                                                                    
                                                                                                    
                                                                                                    
                                                                                                    
                                                                                                    
                                                                                                    
                                                                                                    
                                                                                                    
                                                                                                    
                                                                                                    
                           
<?xpacket end="w"?></metadata>
<defs>
    <style>
      .cls-1 {
        fill-rule: evenodd;
      }
    </style>
  </defs>
  <path id="Rectangle_1_copy" data-name="Rectangle 1 copy" class="cls-1" d="M179.166,1990.41l-9.6,9.54-4.921-4.89,9.663-9.6Zm10.741-10.67-2.685,2.67-4.932-4.88,2.7-2.68Zm11.915-7.1-9.611-9.64-5.251.04-2.981,2.92-0.133,5.26,9.7,9.68h5.339l3.115-3.09Zm-3.051,26c0.071,0.05-3.89-5.45-3.89-5.45l-4.583.13-1.691,4.02s3.674,5.69,3.675,5.63q-0.365.03-.739,0.03a8.088,8.088,0,0,1-7.556-11.11l-12.9-12.81A8.162,8.162,0,0,1,160,1971.53a8,8,0,0,1,.9-3.71c0.8,1.18,3.9,5.79,3.9,5.79l4.539-.18,1.735-4.33s-3-4.19-4.037-5.58a8.093,8.093,0,0,1,8.839,10.55L189.1,1987.2a7.93,7.93,0,0,1,2.447-.38,8.115,8.115,0,0,1,8.143,8.09A8.007,8.007,0,0,1,198.771,1998.64Z" transform="translate(-160 -1963)"/>
</svg>
