<svg xmlns="http://www.w3.org/2000/svg" width="31" height="40" viewBox="0 0 31 40">
  <metadata><?xpacket begin="﻿" id="W5M0MpCehiHzreSzNTczkc9d"?>
<x:xmpmeta xmlns:x="adobe:ns:meta/" x:xmptk="Adobe XMP Core 5.6-c138 79.159824, 2016/09/14-01:09:01        ">
   <rdf:RDF xmlns:rdf="http://www.w3.org/1999/02/22-rdf-syntax-ns#">
      <rdf:Description rdf:about=""/>
   </rdf:RDF>
</x:xmpmeta>
                                                                                                    
                                                                                                    
                                                                                                    
                                                                                                    
                                                                                                    
                                                                                                    
                                                                                                    
                                                                                                    
                                                                                                    
                                                                                                    
                                                                                                    
                                                                                                    
                                                                                                    
                                                                                                    
                                                                                                    
                                                                                                    
                                                                                                    
                                                                                                    
                                                                                                    
                                                                                                    
                           
<?xpacket end="w"?></metadata>
<defs>
    <style>
      .cls-1 {
        fill-rule: evenodd;
      }
    </style>
  </defs>
  <path id="Rounded_Rectangle_1_copy_2" data-name="Rounded Rectangle 1 copy 2" class="cls-1" d="M953,2001h-30.99c-0.042-3.49.173-9.49,2.018-11.63,0.757-.87,1.487-2.2,6.6-1.78a23.4,23.4,0,0,0,2-2.14c0.56,1.11,2.531,1.94,4.883,1.95v-0.02c2.353-.01,4.324-0.83,4.883-1.94a23.661,23.661,0,0,0,2,2.13c5.11-.41,5.839.92,6.6,1.79C952.822,1991.5,953.037,1997.51,953,2001Zm-7.329-26.53a2.375,2.375,0,0,1,.882,1.84v0.43a2.361,2.361,0,0,1-2.1,2.34c-0.629,3.43-2.921,6.75-6.99,6.75-4.095,0-6.478-3.22-7-6.81a2.367,2.367,0,0,1-1.759-2.28v-0.43a2.372,2.372,0,0,1,.882-1.84h16.093Zm-0.232-1.46h-17.45v-2.87h1.308a8.364,8.364,0,0,1,5.1-6.08v6.03a1.65,1.65,0,0,0,1.649,1.65h3.2a1.65,1.65,0,0,0,1.649-1.65v-6.08c2.6,0.91,4.023,3.05,4.943,6.13H947.3v2.87h-1.868Zm-6.142-2.26h-3.44a0.7,0.7,0,0,1-.706-0.7v-8.34a0.709,0.709,0,0,1,.706-0.71h3.44a0.71,0.71,0,0,1,.707.71v8.34A0.7,0.7,0,0,1,939.292,1970.75Z" transform="translate(-922 -1961)"/>
</svg>
