<svg xmlns="http://www.w3.org/2000/svg" width="46" height="40" viewBox="0 0 46 40">
  <metadata><?xpacket begin="﻿" id="W5M0MpCehiHzreSzNTczkc9d"?>
<x:xmpmeta xmlns:x="adobe:ns:meta/" x:xmptk="Adobe XMP Core 5.6-c138 79.159824, 2016/09/14-01:09:01        ">
   <rdf:RDF xmlns:rdf="http://www.w3.org/1999/02/22-rdf-syntax-ns#">
      <rdf:Description rdf:about=""/>
   </rdf:RDF>
</x:xmpmeta>
                                                                                                    
                                                                                                    
                                                                                                    
                                                                                                    
                                                                                                    
                                                                                                    
                                                                                                    
                                                                                                    
                                                                                                    
                                                                                                    
                                                                                                    
                                                                                                    
                                                                                                    
                                                                                                    
                                                                                                    
                                                                                                    
                                                                                                    
                                                                                                    
                                                                                                    
                                                                                                    
                           
<?xpacket end="w"?></metadata>
<defs>
    <style>
      .cls-1 {
        fill-rule: evenodd;
      }
    </style>
  </defs>
  <path class="cls-1" d="M454.019,2003L451,1998.65l-3.177-.05-3.351,4.4H435.9l6.972-12.35,1.927,0.82,3.229-4.77,2.656,0.77L457,2003h-2.982Zm-21.928-6.71,1.615-2.87-8.749-4.87,2.083,6.36-1.485,8.09h-3.328l1.376-7.02-2.292-6.15-2.5.05-0.886,5.8-2.56,7.32h-3.444l2.411-7.22,0.469-9.44-3.8-1.03,0.1-6.2,4.739-4.16,2.292,0.21,1.813-1.58a4.037,4.037,0,0,1-2.022-3.45,3.973,3.973,0,0,1,.074-0.75l8.721,0.96a4.206,4.206,0,0,1-3.577,3.82l0.511,1.51,2.864,0.15,0.833,7.54,1.2,4.06-2.812-1.49-0.573-1.74-0.521-3.75-1.041,3.95,0.521,1.85,10.363,5.9,1.51-2.72,3.8,2.05-3.906,6.82Zm-17.029-16.46-1.562,1.43v1.75l1.718,0.41Zm2.244-11.51a5.337,5.337,0,1,1,10.671.19,5.759,5.759,0,0,1-.076.93Zm33.169,31.15,2.5,3.53h-7.694l3.009-3.53h2.187Z" transform="translate(-411 -1963)"/>
</svg>
